{
	"asset":{
		"generator":"Khronos glTF Blender I/O v4.3.47",
		"version":"2.0"
	},
	"scene":0,
	"scenes":[
		{
			"name":"Scene",
			"nodes":[
				0
			]
		}
	],
	"nodes":[
		{
			"mesh":0,
			"name":"Board"
		}
	],
	"materials":[
		{
			"doubleSided":true,
			"name":"Board Wood",
			"pbrMetallicRoughness":{
				"baseColorTexture":{
					"index":0
				},
				"metallicFactor":0,
				"roughnessFactor":0.4000000059604645
			}
		}
	],
	"meshes":[
		{
			"name":"Cube.011",
			"primitives":[
				{
					"attributes":{
						"POSITION":0,
						"NORMAL":1,
						"TEXCOORD_0":2
					},
					"indices":3,
					"material":0
				}
			]
		}
	],
	"textures":[
		{
			"sampler":0,
			"source":0
		}
	],
	"images":[
		{
			"mimeType":"image/png",
			"name":"board_baked_image",
			"uri":"board_baked_image.png"
		}
	],
	"accessors":[
		{
			"bufferView":0,
			"componentType":5126,
			"count":7296,
			"max":[
				2.25,
				4.699999809265137,
				2.25
			],
			"min":[
				-2.25,
				0,
				-2.25
			],
			"type":"VEC3"
		},
		{
			"bufferView":1,
			"componentType":5126,
			"count":7296,
			"type":"VEC3"
		},
		{
			"bufferView":2,
			"componentType":5126,
			"count":7296,
			"type":"VEC2"
		},
		{
			"bufferView":3,
			"componentType":5123,
			"count":9648,
			"type":"SCALAR"
		}
	],
	"bufferViews":[
		{
			"buffer":0,
			"byteLength":87552,
			"byteOffset":0,
			"target":34962
		},
		{
			"buffer":0,
			"byteLength":87552,
			"byteOffset":87552,
			"target":34962
		},
		{
			"buffer":0,
			"byteLength":58368,
			"byteOffset":175104,
			"target":34962
		},
		{
			"buffer":0,
			"byteLength":19296,
			"byteOffset":233472,
			"target":34963
		}
	],
	"samplers":[
		{
			"magFilter":9729,
			"minFilter":9987
		}
	],
	"buffers":[
		{
			"byteLength":252768,
			"uri":"board.bin"
		}
	]
}
