{
	"asset":{
		"generator":"Khronos glTF Blender I/O v4.3.47",
		"version":"2.0"
	},
	"scene":0,
	"scenes":[
		{
			"name":"Scene",
			"nodes":[
				0
			]
		}
	],
	"nodes":[
		{
			"mesh":0,
			"name":"O Piece"
		}
	],
	"materials":[
		{
			"doubleSided":true,
			"name":"O Wood",
			"pbrMetallicRoughness":{
				"baseColorTexture":{
					"index":0
				},
				"metallicFactor":0,
				"roughnessFactor":0.4000000059604645
			}
		}
	],
	"meshes":[
		{
			"name":"Sphere",
			"primitives":[
				{
					"attributes":{
						"POSITION":0,
						"NORMAL":1,
						"TEXCOORD_0":2
					},
					"indices":3,
					"material":0
				}
			]
		}
	],
	"textures":[
		{
			"sampler":0,
			"source":0
		}
	],
	"images":[
		{
			"mimeType":"image/png",
			"name":"o_piece_baked_image",
			"uri":"o_piece_baked_image.png"
		}
	],
	"accessors":[
		{
			"bufferView":0,
			"componentType":5126,
			"count":7888,
			"max":[
				0.5499998331069946,
				0.5201036930084229,
				0.5499995946884155
			],
			"min":[
				-0.5499994158744812,
				-0.5201036930084229,
				-0.550000011920929
			],
			"type":"VEC3"
		},
		{
			"bufferView":1,
			"componentType":5126,
			"count":7888,
			"type":"VEC3"
		},
		{
			"bufferView":2,
			"componentType":5126,
			"count":7888,
			"type":"VEC2"
		},
		{
			"bufferView":3,
			"componentType":5123,
			"count":12672,
			"type":"SCALAR"
		}
	],
	"bufferViews":[
		{
			"buffer":0,
			"byteLength":94656,
			"byteOffset":0,
			"target":34962
		},
		{
			"buffer":0,
			"byteLength":94656,
			"byteOffset":94656,
			"target":34962
		},
		{
			"buffer":0,
			"byteLength":63104,
			"byteOffset":189312,
			"target":34962
		},
		{
			"buffer":0,
			"byteLength":25344,
			"byteOffset":252416,
			"target":34963
		}
	],
	"samplers":[
		{
			"magFilter":9729,
			"minFilter":9987
		}
	],
	"buffers":[
		{
			"byteLength":277760,
			"uri":"o_piece.bin"
		}
	]
}
