{
	"asset":{
		"generator":"Khronos glTF Blender I/O v4.3.47",
		"version":"2.0"
	},
	"scene":0,
	"scenes":[
		{
			"name":"Scene",
			"nodes":[
				0
			]
		}
	],
	"nodes":[
		{
			"mesh":0,
			"name":"X Piece"
		}
	],
	"materials":[
		{
			"doubleSided":true,
			"name":"X Wood baked",
			"pbrMetallicRoughness":{
				"baseColorTexture":{
					"index":0
				},
				"metallicFactor":0,
				"roughnessFactor":0.4000000059604645
			}
		}
	],
	"meshes":[
		{
			"name":"Cube.013",
			"primitives":[
				{
					"attributes":{
						"POSITION":0,
						"NORMAL":1,
						"TEXCOORD_0":2
					},
					"indices":3,
					"material":0
				}
			]
		}
	],
	"textures":[
		{
			"sampler":0,
			"source":0
		}
	],
	"images":[
		{
			"mimeType":"image/png",
			"name":"x_wood_baked_image",
			"uri":"x_wood_baked_image.png"
		}
	],
	"accessors":[
		{
			"bufferView":0,
			"componentType":5126,
			"count":2091,
			"max":[
				0.39450863003730774,
				0.5509638786315918,
				0.5500974655151367
			],
			"min":[
				-0.3954913318157196,
				-0.5490361452102661,
				-0.5499029159545898
			],
			"type":"VEC3"
		},
		{
			"bufferView":1,
			"componentType":5126,
			"count":2091,
			"type":"VEC3"
		},
		{
			"bufferView":2,
			"componentType":5126,
			"count":2091,
			"type":"VEC2"
		},
		{
			"bufferView":3,
			"componentType":5123,
			"count":4920,
			"type":"SCALAR"
		}
	],
	"bufferViews":[
		{
			"buffer":0,
			"byteLength":25092,
			"byteOffset":0,
			"target":34962
		},
		{
			"buffer":0,
			"byteLength":25092,
			"byteOffset":25092,
			"target":34962
		},
		{
			"buffer":0,
			"byteLength":16728,
			"byteOffset":50184,
			"target":34962
		},
		{
			"buffer":0,
			"byteLength":9840,
			"byteOffset":66912,
			"target":34963
		}
	],
	"samplers":[
		{
			"magFilter":9729,
			"minFilter":9987
		}
	],
	"buffers":[
		{
			"byteLength":76752,
			"uri":"x_piece.bin"
		}
	]
}
